<svg x="0" y="0" width="700" height="350" viewBox="0 0 700 350" xmlns="http://www.w3.org/2000/svg" xmlns:xlink="http://www.w3.org/1999/xlink" xmlns:fi="http://pattern.flaticon.com/"><rect x="0px" y="0px" width="100%" height="100%" opacity="1" fill="#0F1116"/>
<style>path{fill:#fff;opacity:0.1;}</style>
<defs><g transform="matrix(0.48402321338653564 0 0 0.48402321338653564 239 183)" id="L1_49"><path d="M49.8,29.032c3.1-1.3,4.4-5,3-8l-4.9-10.3c-1.4-2.899-4.8-4.2-7.8-2.899c-8.5,3.6-15.8,8.3-21.6,14   C11.4,28.532,6.6,36.232,4,44.732c-2.6,8.601-4,20.3-4,35.2v30.7c0,3.3,2.7,6,6,6h39.3c3.3,0,6-2.7,6-6v-39.3c0-3.301-2.7-6-6-6   H26.5c0.2-10.101,2.6-18.2,7-24.301C37.1,36.133,42.5,32.133,49.8,29.032z"/><path d="M120.4,29.032c3.1-1.3,4.399-5,3-8l-4.9-10.199c-1.4-2.9-4.8-4.2-7.8-2.9c-8.4,3.6-15.601,8.3-21.5,13.9   c-7.101,6.8-12,14.5-14.601,23c-2.6,8.399-3.899,20.1-3.899,35.1v30.7c0,3.3,2.7,6,6,6H116c3.3,0,6-2.7,6-6v-39.3   c0-3.301-2.7-6-6-6H97.1c0.2-10.101,2.601-18.2,7-24.301C107.7,36.133,113.1,32.133,120.4,29.032z"/></g><g transform="matrix(0.061536189168691635 0 0 0.061536189168691635 85 -8)" id="L1_50"><path d="M925.036,57.197h-304c-27.6,0-50,22.4-50,50v304c0,27.601,22.4,50,50,50h145.5c-1.9,79.601-20.4,143.3-55.4,191.2   c-27.6,37.8-69.399,69.1-125.3,93.8c-25.7,11.3-36.8,41.7-24.8,67.101l36,76c11.6,24.399,40.3,35.1,65.1,24.399   c66.2-28.6,122.101-64.8,167.7-108.8c55.601-53.7,93.7-114.3,114.3-181.9c20.601-67.6,30.9-159.8,30.9-276.8v-239   C975.036,79.598,952.635,57.197,925.036,57.197z"/><path d="M106.036,913.497c65.4-28.5,121-64.699,166.9-108.6c56.1-53.7,94.4-114.1,115-181.2c20.6-67.1,30.899-159.6,30.899-277.5   v-239c0-27.6-22.399-50-50-50h-304c-27.6,0-50,22.4-50,50v304c0,27.601,22.4,50,50,50h145.5c-1.9,79.601-20.4,143.3-55.4,191.2   c-27.6,37.8-69.4,69.1-125.3,93.8c-25.7,11.3-36.8,41.7-24.8,67.101l35.9,75.8C52.336,913.497,81.236,924.298,106.036,913.497z"/></g></defs><g fi:class="KUsePattern"><pattern id="pattern_L1_49" width="350" height="350" patternUnits="userSpaceOnUse"><use xlink:href="#L1_49" x="-350" y="-350"/><use xlink:href="#L1_49" x="0" y="-350"/><use xlink:href="#L1_49" x="350" y="-350"/><use xlink:href="#L1_49" x="-350" y="0"/><use xlink:href="#L1_49" x="0" y="0"/><use xlink:href="#L1_49" x="350" y="0"/><use xlink:href="#L1_49" x="-350" y="350"/><use xlink:href="#L1_49" x="0" y="350"/><use xlink:href="#L1_49" x="350" y="350"/></pattern><rect x="0" y="0" width="100%" height="100%" fill="url(#pattern_L1_49)"/></g><g fi:class="KUsePattern"><pattern id="pattern_L1_50" width="350" height="350" patternUnits="userSpaceOnUse"><use xlink:href="#L1_50" x="-350" y="-350"/><use xlink:href="#L1_50" x="0" y="-350"/><use xlink:href="#L1_50" x="350" y="-350"/><use xlink:href="#L1_50" x="-350" y="0"/><use xlink:href="#L1_50" x="0" y="0"/><use xlink:href="#L1_50" x="350" y="0"/><use xlink:href="#L1_50" x="-350" y="350"/><use xlink:href="#L1_50" x="0" y="350"/><use xlink:href="#L1_50" x="350" y="350"/></pattern><rect x="0" y="0" width="100%" height="100%" fill="url(#pattern_L1_50)"/></g></svg>