<svg style="opacity:0.1;" x="0" y="0" width="700" height="350" viewBox="0 0 700 350" xmlns="http://www.w3.org/2000/svg" xmlns:xlink="http://www.w3.org/1999/xlink" xmlns:fi="http://pattern.flaticon.com/"><rect x="0px" y="0px" width="100%" height="100%" opacity="1" fill="#ffffff"/><defs><g transform="matrix(0.1171875 0 0 0.1171875 189 27)" id="L1_0"><path d="m67.179688 48.394531h-.101563c-5.523437 0-10 4.476563-10 10 0 5.523438 4.476563 10 10 10h.101563c5.523437 0 10-4.476562 10-10 0-5.523437-4.476563-10-10-10zm0 0"/><path d="m116.710938 48.394531h-.101563c-5.523437 0-10 4.476563-10 10 0 5.523438 4.476563 10 10 10h.101563c5.523437 0 10-4.476562 10-10 0-5.523437-4.476563-10-10-10zm0 0"/><path d="m166.242188 48.394531h-.101563c-5.523437 0-10 4.476563-10 10 0 5.523438 4.476563 10 10 10h.101563c5.523437 0 10-4.476562 10-10 0-5.523437-4.476563-10-10-10zm0 0"/><path d="m444.308594 48.394531h-192.929688c-5.523437 0-10 4.476563-10 10 0 5.519531 4.476563 10 10 10h192.929688c5.523437 0 10-4.480469 10-10 0-5.523437-4.476563-10-10-10zm0 0"/><path d="m262.890625 452.4375c-2.628906 0-5.199219 1.070312-7.070313 2.929688-1.859374 1.859374-2.929687 4.441406-2.929687 7.070312s1.070313 5.210938 2.929687 7.070312c1.871094 1.859376 4.441407 2.929688 7.070313 2.929688s5.210937-1.070312 7.070313-2.929688c1.867187-1.859374 2.929687-4.441406 2.929687-7.070312s-1.0625-5.210938-2.929687-7.070312c-1.859376-1.859376-4.441407-2.929688-7.070313-2.929688zm0 0"/><path d="m480.230469.5h-448.460938c-17.515625 0-31.769531 14.253906-31.769531 31.769531v408.398438c0 17.519531 14.253906 31.769531 31.769531 31.769531h189.230469c5.523438 0 10-4.476562 10-10s-4.476562-10-10-10h-189.230469c-6.488281 0-11.769531-5.277344-11.769531-11.769531v-324.378907h472v324.378907c0 6.488281-5.28125 11.769531-11.769531 11.769531h-176.5625c-5.523438 0-10 4.476562-10 10s4.476562 10 10 10h176.5625c17.515625 0 31.769531-14.25 31.769531-31.769531v-408.398438c0-17.515625-14.253906-31.769531-31.769531-31.769531zm-460.230469 95.785156v-64.015625c0-6.488281 5.28125-11.769531 11.769531-11.769531h448.460938c6.488281 0 11.769531 5.28125 11.769531 11.769531v64.019531h-472zm0 0"/><path d="m178.039062 230.5c0-19.851562-16.148437-36-36-36h-33.667968c-5.523438 0-10 4.476562-10 10v104c0 5.523438 4.476562 10 10 10h33.667968c19.851563 0 36-16.148438 36-36 0-10.214844-4.28125-19.441406-11.140624-26 6.859374-6.558594 11.140624-15.785156 11.140624-26zm-20 52c0 8.820312-7.179687 16-16 16h-23.667968v-32h23.667968c8.820313 0 16 7.175781 16 16zm-39.667968-36v-32h23.667968c8.824219 0 16 7.179688 16 16s-7.175781 16-16 16zm0 0"/><path d="m206.648438 194.5c-5.523438 0-10 4.476562-10 10v80.871094c0 18.269531 14.863281 33.128906 33.128906 33.128906 5.523437 0 10-4.476562 10-10s-4.476563-10-10-10c-7.238282 0-13.128906-5.890625-13.128906-13.128906v-80.871094c0-5.523438-4.476563-10-10-10zm0 0"/><path d="m324.867188 282.289062c0-19.96875-16.242188-36.214843-36.210938-36.214843s-36.210938 16.246093-36.210938 36.214843 16.246094 36.210938 36.210938 36.210938c19.96875 0 36.210938-16.242188 36.210938-36.210938zm-52.421876 0c0-8.941406 7.273438-16.214843 16.210938-16.214843s16.210938 7.273437 16.210938 16.214843c0 8.9375-7.269532 16.210938-16.210938 16.210938s-16.210938-7.273438-16.210938-16.210938zm0 0"/><path d="m377.414062 346.5c-8.9375 0-16.210937-7.273438-16.210937-16.210938 0-5.523437-4.476563-10-10-10s-10 4.476563-10 10c0 19.96875 16.246094 36.210938 36.210937 36.210938 19.96875 0 36.214844-16.242188 36.214844-36.210938v-48c0-19.96875-16.246094-36.214843-36.214844-36.214843-19.964843 0-36.210937 16.246093-36.210937 36.214843s16.246094 36.210938 36.210937 36.210938c5.828126 0 11.332032-1.390625 16.214844-3.847656v15.636718c0 8.9375-7.273437 16.210938-16.214844 16.210938zm0-48c-8.9375 0-16.210937-7.273438-16.210937-16.210938 0-8.941406 7.273437-16.214843 16.210937-16.214843 8.941407 0 16.214844 7.273437 16.214844 16.214843 0 8.9375-7.273437 16.210938-16.214844 16.210938zm0 0"/><path d="m108.371094 416.5h295.257812c5.523438 0 10-4.476562 10-10s-4.476562-10-10-10h-295.257812c-5.519532 0-10 4.476562-10 10s4.480468 10 10 10zm0 0"/></g><path d="m24.859375 312.96875c3.820313 1.910156 7.933594 3.230469 12.175781 3.96875l-6.609375 9.4375c-1.335937 1.910156-2.207031 4.101562-2.550781 6.402344l-9.839844 66.359375c-.832031 5.621093 1.578125 11.230469 6.234375 14.488281 4.660157 3.261719 10.753907 3.605469 15.746094.902344l55.574219-30.09375c7.675781 13.867187 22.457031 23.28125 39.398437 23.28125 11.515625 0 22.035157-4.347656 30-11.484375 7.96875 7.136719 18.488281 11.484375 30 11.484375 24.816407 0 45.003907-20.1875 45.003907-45v-5.742188c27.902343 13.578125 58.972656 20.742188 90 20.742188 32.050781 0 63.835937-7.351563 92.003906-21.246094v36.246094c0 5.199218 2.691406 10.027344 7.113281 12.761718 4.414063 2.726563 9.9375 2.984376 14.59375.65625l60.003906-30c5.082031-2.542968 8.292969-7.734374 8.292969-13.417968v-180.003906c0-8.285157-6.71875-15-15-15-23.894531 0-81.863281 0-103.53125 0l-105.816406-51.777344 40.203125-57.414063c4.746093-6.78125 3.101562-16.140625-3.6875-20.890625l-49.148438-34.417968c-6.78125-4.746094-16.140625-3.101563-20.890625 3.683593-6.351562 9.070313-46.882812 66.957031-53.191406 75.964844-12.304688-6.464844-27.058594-6.433594-36.417969-2.371094l-57.078125 24.796875c-8.273437 3.597656-15.207031 9.519532-20.042968 17.132813l-81.90625 128.828125c-5.320313 8.371094-7.523438 22.734375-3.203126 35.699218 3.800782 11.402344 11.816407 20.644532 22.570313 26.023438zm27.253906 60.894531 4.921875-33.179687 13.414063-19.160156c5.75 8.394531 13.574219 15.25 22.730469 19.84375l-11.570313 16.523437zm82.875 3.855469c-8.269531 0-15-6.730469-15-15.003906v-7.332032l5.371094-7.667968h24.628906v15c0 8.273437-6.726562 15.003906-15 15.003906zm60.003907 0c-8.273438 0-15-6.730469-15-15.003906v-15h30v15c0 8.273437-6.730469 15.003906-15 15.003906zm287.007812-24.273438-30.003906 15v-170.734374h30.003906zm-98.597656-157.261718c2.054687 1.003906 4.308594 1.527344 6.59375 1.527344h32v125.53125c-10.109375 3.929687-41.5 24.472656-92 24.472656-53.535156 0-86.507813-23.710938-98.296875-28.417969-2.140625-1.070313-4.5-1.582031-6.707031-1.582031h-105.003907c-15.339843 0-28.019531-11.574219-29.78125-26.449219.46875-2.175781.425781-4.410156-.070312-6.546875 1.507812-15.140625 14.320312-27.003906 29.851562-27.003906h92.578125c31.363282 0 60.855469-12.214844 83.035156-34.394532 5.855469-5.859374 5.855469-15.355468 0-21.214843-5.859374-5.859375-15.355468-5.859375-21.214843 0-16.515625 16.511719-38.46875 25.609375-61.820313 25.609375h-3.179687l60.84375-86.898438zm-147.71875-110.640625 24.574218 17.210937-87.496093 124.960938h-36.625c12.753906-18.214844 87.847656-125.460938 99.546875-142.171875zm34.414062-49.148438 24.578125 17.207031-17.210937 24.578126-24.574219-17.210938zm-238.804687 230.1875 81.421875-128.066406c1.613281-2.539063 3.925781-4.511719 6.683594-5.710937l56.363281-24.488282c2.503906-.734375 5.085937-.785156 7.523437-.242187l-87.289062 124.660156c-18.449219 8.082031-32.082032 25.175781-35.285156 45.691406-2.742188 7.703125-14.660157 11.59375-22.433594 7.707031-7.316406-3.65625-10.222656-12.339843-6.984375-19.550781zm0 0" transform="matrix(0.11718781292438507 0 0 0.11718781292438507 -22 98)" id="L1_3"/><g transform="matrix(2.5 0 0 2.5 318 220)" id="L1_4"><path d="m12.25 12c-.414 0-.75-.336-.75-.75v-.75h-7v.75c0 .414-.336.75-.75.75s-.75-.336-.75-.75v-1.5c0-.414.336-.75.75-.75h8.5c.414 0 .75.336.75.75v1.5c0 .414-.336.75-.75.75z"/><path d="m8 18.75c-.414 0-.75-.336-.75-.75v-8c0-.414.336-.75.75-.75s.75.336.75.75v8c0 .414-.336.75-.75.75z"/><path d="m9.25 19h-2.5c-.414 0-.75-.336-.75-.75s.336-.75.75-.75h2.5c.414 0 .75.336.75.75s-.336.75-.75.75z"/><path d="m20.25 10.5h-4.5c-.414 0-.75-.336-.75-.75s.336-.75.75-.75h4.5c.414 0 .75.336.75.75s-.336.75-.75.75z"/><path d="m20.25 14.5h-4.5c-.414 0-.75-.336-.75-.75s.336-.75.75-.75h4.5c.414 0 .75.336.75.75s-.336.75-.75.75z"/><path d="m20.25 18.5h-4.5c-.414 0-.75-.336-.75-.75s.336-.75.75-.75h4.5c.414 0 .75.336.75.75s-.336.75-.75.75z"/><path d="m21.25 23h-18.5c-1.517 0-2.75-1.233-2.75-2.75v-16.5c0-1.517 1.233-2.75 2.75-2.75h18.5c1.517 0 2.75 1.233 2.75 2.75v16.5c0 1.517-1.233 2.75-2.75 2.75zm-18.5-20.5c-.689 0-1.25.561-1.25 1.25v16.5c0 .689.561 1.25 1.25 1.25h18.5c.689 0 1.25-.561 1.25-1.25v-16.5c0-.689-.561-1.25-1.25-1.25z"/><path d="m23.25 6h-22.5c-.414 0-.75-.336-.75-.75s.336-.75.75-.75h22.5c.414 0 .75.336.75.75s-.336.75-.75.75z"/></g><path d="m69.9375 80.425781c0-11.035156 8.945312-19.980469 19.980469-19.980469 11.035156 0 19.980469 8.945313 19.980469 19.980469 0 11.039063-8.945313 19.984375-19.980469 19.984375-11.035157 0-19.980469-8.945312-19.980469-19.984375zm89.917969 19.984375c11.035156 0 19.980469-8.945312 19.980469-19.984375 0-11.035156-8.945313-19.980469-19.980469-19.980469-11.035157 0-19.984375 8.945313-19.984375 19.980469 0 11.039063 8.949218 19.984375 19.984375 19.984375zm352.144531 309.640625-84.910156 85.105469-138.027344-134.242188c-7.722656-7.726562-13.621094-17.292968-17.050781-27.664062l-.3125-.945312-21.359375-95.402344 95.148437 21.636718.914063.304688c10.320312 3.417969 19.84375 9.28125 27.550781 16.957031zm-56.878906.429688-109.328125-106.324219c-.761719-.761719-1.566407-1.484375-2.410157-2.160156l-28.242187 28.222656c.660156.824219 1.359375 1.609375 2.101563 2.359375l109.425781 106.417969zm-144.402344 29.621093 41.089844 39.960938h-291.863282c-33.054687 0-59.945312-26.890625-59.945312-59.945312v-359.671876c0-33.054687 26.890625-59.945312 59.945312-59.945312h391.644532c33.054687 0 59.945312 26.890625 59.945312 59.945312v291.410157l-39.964844-38.863281v-152.636719h-431.605468v259.761719c0 11.019531 8.960937 19.984374 19.980468 19.984374zm-270.753906-379.65625v59.945313h431.605468v-59.945313c0-11.019531-8.964843-19.980468-19.980468-19.980468h-391.644532c-11.019531 0-19.980468 8.960937-19.980468 19.980468zm0 0" transform="matrix(0.09767232835292816 0 0 0.09767232835292816 234.99588012695312 291.75347900390625)" id="L1_5"/><g transform="matrix(0.1171875 0 0 0.1171875 67 316)" id="L1_6"><path d="M488,16H24a8,8,0,0,0-8,8V488a8,8,0,0,0,8,8H488a8,8,0,0,0,8-8V24A8,8,0,0,0,488,16ZM32,32H480V80H32Zm0,448V96H480V480Z"/><circle cx="120" cy="56" r="8"/><circle cx="88" cy="56" r="8"/><circle cx="56" cy="56" r="8"/><path d="M456,48H440a8,8,0,0,0,0,16h16a8,8,0,0,0,0-16Z"/><path d="M440,128H72a8,8,0,0,0-8,8V296a8,8,0,0,0,8,8H440a8,8,0,0,0,8-8V136A8,8,0,0,0,440,128ZM123.314,288l30.613-30.613,35.1,14.041a8,8,0,0,0,8.628-1.771l43.363-43.363,66.542,44.362a8,8,0,0,0,7.409.772l35.5-14.2L386.374,288ZM432,288H410.96l-53.753-46.074a8,8,0,0,0-8.178-1.354l-36.093,14.437-68.5-45.665a8,8,0,0,0-10.095,1l-44.27,44.27-35.1-14.041a8,8,0,0,0-8.628,1.771L100.687,288H80V144H432Z"/><path d="M72,352h96a8,8,0,0,0,0-16H72a8,8,0,0,0,0,16Z"/><path d="M312,224a24,24,0,1,0-24-24A24.027,24.027,0,0,0,312,224Zm0-32a8,8,0,1,1-8,8A8.009,8.009,0,0,1,312,192Z"/><path d="M232,384H72a8,8,0,0,0,0,16H232a8,8,0,0,0,0-16Z"/><path d="M232,432H72a8,8,0,0,0,0,16H232a8,8,0,0,0,0-16Z"/><path d="M440,384H280a8,8,0,0,0,0,16H440a8,8,0,0,0,0-16Z"/><path d="M440,432H280a8,8,0,0,0,0,16H440a8,8,0,0,0,0-16Z"/></g><g transform="matrix(0.08567075431346893 0 0 0.08567075431346893 84.06828308105469 127.06828308105469)" id="L1_7"><path d="M53.572,269.851C57.344,273.779,62.554,276,68,276s10.656-2.221,14.428-6.149l48-50C134.003,216.126,136,211.163,136,206     V20c0-11.046-8.954-20-20-20H20C8.954,0,0,8.954,0,20v186c0,5.163,1.997,10.126,5.572,13.851L53.572,269.851z M40,40h56v157.954     l-28,29.167l-28-29.167V40z"/><path d="M205.999,40H492c11.046,0,20-8.954,20-20s-8.954-20-20-20H205.999c-11.046,0-20,8.954-20,20S194.953,40,205.999,40z"/><path d="M492,472H20c-11.046,0-20,8.954-20,20c0,11.046,8.954,20,20,20h472c11.046,0,20-8.954,20-20     C512,480.954,503.046,472,492,472z"/><path d="M492,354H20c-11.046,0-20,8.954-20,20c0,11.046,8.954,20,20,20h472c11.046,0,20-8.954,20-20     C512,362.954,503.046,354,492,354z"/><path d="M492,118H205.999c-11.046,0-20,8.954-20,20c0,11.046,8.954,20,20,20H492c11.046,0,20-8.954,20-20S503.046,118,492,118z"/><path d="M492,236H205.999c-11.046,0-20,8.954-20,20s8.954,20,20,20H492c11.046,0,20-8.954,20-20C512,244.954,503.046,236,492,236     z"/></g><g transform="matrix(0.1171875 0 0 0.1171875 170 185)" id="L1_8"><path d="m416.511719 185.398438c-3.476563-2.847657-8.046875-3.988282-12.453125-3.109376-94.050782 18.8125-162.058594 101.523438-162.058594 197.679688v42.03125h-167c-8.285156 0-15 6.714844-15 15s6.714844 15 15 15h182c8.285156 0 15-6.714844 15-15v-18.085938c37.40625-9.851562 70.769531-29.996093 97.082031-58.734374 3.675781-4.015626 4.886719-9.707032 3.164063-14.875l-4.433594-13.304688h14.386719c5.367187 0 10.324219-2.867188 13-7.519531 17.535156-30.480469 26.800781-65.214844 26.800781-100.453125v-27.027344c0-4.492188-2.015625-8.75-5.488281-11.601562zm-24.511719 38.632812c0 27.132812-6.453125 53.910156-18.726562 77.96875h-26.273438c-4.820312 0-9.351562 2.316406-12.167969 6.230469-2.820312 3.910156-3.585937 8.9375-2.0625 13.511719l8.148438 24.449218c-19.472657 19.253906-42.933594 33.367188-68.917969 41.511719v-7.734375c0-75.277344 49.472656-141.386719 120-163.652344zm0 0"/><path d="m467 0h-422c-24.8125 0-45 20.1875-45 45v422c0 24.8125 20.1875 45 45 45h422c24.8125 0 45-20.1875 45-45v-422c0-24.8125-20.1875-45-45-45zm-422 30h422c8.269531 0 15 6.730469 15 15v75h-452v-75c0-8.269531 6.730469-15 15-15zm422 452h-422c-8.269531 0-15-6.730469-15-15v-317h452v317c0 8.269531-6.730469 15-15 15zm0 0"/><path d="m89.972656 75c0 8.285156-6.71875 15-15 15-8.285156 0-15-6.714844-15-15s6.714844-15 15-15c8.28125 0 15 6.714844 15 15zm0 0"/><path d="m149.972656 75c0 8.285156-6.71875 15-15 15-8.285156 0-15-6.714844-15-15s6.714844-15 15-15c8.28125 0 15 6.714844 15 15zm0 0"/><path d="m209.972656 75c0 8.285156-6.71875 15-15 15-8.285156 0-15-6.714844-15-15s6.714844-15 15-15c8.28125 0 15 6.714844 15 15zm0 0"/><path d="m287 90h150c8.285156 0 15-6.714844 15-15s-6.714844-15-15-15h-150c-8.285156 0-15 6.714844-15 15s6.714844 15 15 15zm0 0"/></g><g transform="matrix(0.11712459474802017 0 0 0.11712459474802017 251 144)" id="L1_9"><path d="m507.117 29.154-17.13-17.13c-6.884-6.883-18.083-6.883-24.969.001l-74.555 74.552h-57.29v-58.19c0-11.965-9.734-21.7-21.7-21.7h-237.959c-11.965 0-21.7 9.735-21.7 21.7v58.19h-12.58c-21.631 0-39.23 17.599-39.23 39.23l-.004 249.909c0 20.524 16.698 37.222 37.222 37.222h108.707l-3.798 63.167h-24.361c-12.949 0-24.922 7.019-31.248 18.316-2.024 3.614-.734 8.185 2.88 10.208 3.615 2.024 8.184.734 10.208-2.88 3.676-6.566 10.635-10.645 18.16-10.645h225.309c7.524 0 14.482 4.079 18.159 10.645 2.141 2.767 5.247 5.201 10.208 2.88 3.614-2.023 4.903-6.594 2.88-10.208-6.325-11.298-18.299-18.316-31.247-18.316h-26.242l-3.798-63.167h110.588c20.524 0 37.222-16.698 37.222-37.222l-.004-236.852c0-4.142-3.357-7.5-7.5-7.5s-7.5 3.358-7.5 7.5v216.333h-112.67v-127.137l173.95-173.946c6.869-6.888 6.866-18.085-.008-24.96zm-186.635 189.379c-.646.438-3.38.891-3.38.891l-7.949 1.264-12.733 2.032 3.506-23.328c.123-.819.506-1.576 1.092-2.161l2.95-2.943 147.04-147.04 20.883 20.883-147.04 147.04c-.001 0-3.536 2.798-4.369 3.362zm-281.249-116.955h12.58v253.62h-36.81v-229.39c0-13.361 10.87-24.23 24.23-24.23zm262.575 374.527h-144.65l3.798-63.167h23.418v4.919c0 24.036 19.554 43.59 43.59 43.59h4.92c24.036 0 43.59-19.554 43.59-43.59v-4.919h21.537zm-40.334-63.166v4.919c0 15.765-12.825 28.59-28.59 28.59h-4.92c-15.765 0-28.59-12.825-28.59-28.59v-4.919zm184.374-37.223c0 12.253-9.969 22.222-22.222 22.222h-386.404c-12.253.001-22.222-9.968-22.222-22.222v-5.519h44.313 266.36 120.174v5.519zm-379.035-20.518v-326.81c0-3.694 3.006-6.7 6.7-6.7h237.96c3.694 0 6.7 3.006 6.7 6.7v95.394c0 4.142 3.357 7.5 7.5 7.5s7.5-3.358 7.5-7.5v-22.204h42.29l-87.407 87.407c-1.143.617-6.361 33.463-7.073 35.271h-187.623c-4.142 0-7.5 3.358-7.5 7.5s3.358 7.5 7.5 7.5h194.022c.957.103 29.386-4.674 30.792-4.818v120.76zm429.697-311.683-14.011 14.012-20.884-20.884 14.011-14.011c1.035-1.035 2.721-1.035 3.754 0l17.13 17.13c1.034 1.033 1.031 2.72 0 3.753z"/><path d="m104.307 158.567h81.33c10.172 0 18.447-8.275 18.447-18.447v-58.815c0-10.172-8.275-18.447-18.447-18.447h-81.33c-10.171 0-18.447 8.275-18.447 18.447v58.815c0 10.172 8.275 18.447 18.447 18.447zm-3.447-77.262c0-1.901 1.546-3.447 3.447-3.447h81.33c1.901 0 3.447 1.546 3.447 3.447v58.815c0 1.901-1.546 3.447-3.447 3.447h-81.33c-1.9 0-3.447-1.546-3.447-3.447z"/><path d="m293.786 249.941h-53.893c-10.172 0-18.447 8.275-18.447 18.447v40.433c0 10.172 8.275 18.447 18.447 18.447h53.893c10.172 0 18.447-8.275 18.447-18.447v-40.433c0-10.172-8.275-18.447-18.447-18.447zm3.447 58.88c0 1.901-1.547 3.447-3.447 3.447h-53.893c-1.901 0-3.447-1.546-3.447-3.447v-40.433c0-1.901 1.546-3.447 3.447-3.447h53.893c1.9 0 3.447 1.546 3.447 3.447z"/><path d="m229.649 99.581h65.835c4.143 0 7.5-3.358 7.5-7.5s-3.357-7.5-7.5-7.5h-65.835c-4.142 0-7.5 3.358-7.5 7.5s3.358 7.5 7.5 7.5z"/><path d="m229.649 127.265h65.835c4.143 0 7.5-3.358 7.5-7.5s-3.357-7.5-7.5-7.5h-65.835c-4.142 0-7.5 3.358-7.5 7.5s3.358 7.5 7.5 7.5z"/><path d="m93.36 210.571h128.186c4.142 0 7.5-3.358 7.5-7.5s-3.358-7.5-7.5-7.5h-128.186c-4.142 0-7.5 3.358-7.5 7.5s3.358 7.5 7.5 7.5z"/><path d="m196.584 269.262h-48.561c-4.142 0-7.5 3.358-7.5 7.5s3.358 7.5 7.5 7.5h48.561c4.142 0 7.5-3.358 7.5-7.5s-3.358-7.5-7.5-7.5z"/><path d="m93.36 284.262h19.223c4.142 0 7.5-3.358 7.5-7.5s-3.358-7.5-7.5-7.5h-19.223c-4.142 0-7.5 3.358-7.5 7.5s3.358 7.5 7.5 7.5z"/><path d="m196.584 296.947h-103.224c-4.142 0-7.5 3.358-7.5 7.5s3.358 7.5 7.5 7.5h103.224c4.142 0 7.5-3.358 7.5-7.5s-3.358-7.5-7.5-7.5z"/></g><g transform="matrix(0.6313453316688538 0 0 0.6313453316688538 316.79693603515625 15.79694938659668)" id="L1_10"><path d="m55.944 27.642c2.616-2.616 4.056-6.094 4.056-9.793 0-7.636-6.213-13.849-13.849-13.849-3.699 0-7.177 1.44-9.793 4.056l-.944.944 19.586 19.586z"/><path d="m9.115 32.136h34.77v10.728h-34.77z" transform="matrix(0.7070000171661377 -0.7070000171661377 0.7070000171661377 0.7070000171661377 -18.7549991607666 29.722000122070312)"/><path d="m16.615 41.757h34.77v6.485h-34.77z" transform="matrix(0.7070000171661377 -0.7070000171661377 0.7070000171661377 0.7070000171661377 -21.861000061035156 37.22200012207031)"/><path d="m39.464 8.151h5.071v27.699h-5.071z" transform="matrix(0.7070000171661377 -0.7070000171661377 0.7070000171661377 0.7070000171661377 -3.255000114440918 36.141998291015625)"/><path d="m1.615 26.757h34.77v6.485h-34.77z" transform="matrix(0.7070000171661377 -0.7070000171661377 0.7070000171661377 0.7070000171661377 -15.64799976348877 22.222000122070312)"/><path d="m21.586 60-15.293-15.293-2.293-2.293v11.172l6.414 6.414z"/><path d="m4 56.414v3.586h3.586z"/></g><g transform="matrix(0.08055783063173294 0 0 0.08055783063173294 87.89823913574219 226.8986053466797)" id="L1_11"><path d="M0,237.077c0,93.809,54.53,174.922,133.626,213.344L20.528,140.625C7.366,170.077,0,202.715,0,237.077z"/><path d="M241.246,257.791l-71.154,206.681c21.236,6.219,43.729,9.663,66.968,9.663c27.613,0,54.103-4.784,78.738-13.436    c-0.616-1.028-1.209-2.119-1.7-3.288L241.246,257.791z"/><path d="M397.112,225.089c0-29.295-10.551-49.573-19.554-65.348c-12.017-19.537-23.286-36.06-23.286-55.622    c0-21.75,16.523-42.045,39.809-42.045c1.068,0,2.074,0.141,3.063,0.188C354.99,23.63,298.791,0.016,237.06,0.016    c-82.828,0-153.093,41.813-195.895,103.605c5.557,0.203,76.252,0.498,76.252,0.498c12.78-0.716,14.291,18.051,1.534,19.563    c0,0-12.852,1.496-27.145,2.244l86.335,256.746l51.874-155.557l-36.927-101.19c-12.771-0.748-24.853-1.06-24.853-1.06    c-12.772-0.748-11.278-18.377,1.48-18.377h125.646c12.773,0,14.271,16.865,1.496,18.377c0,0-12.851,0.903-27.12,1.652    l85.688,254.518l23.629-79.15C391.089,271.079,397.112,245.399,397.112,225.089z"/><path d="M445.097,123.338c1.021,7.576,1.605,15.682,1.605,24.395c0,24.042-4.504,51.07-18.049,84.885l-72.401,209.34    c70.5-41.088,117.899-117.432,117.899-204.881C474.151,195.857,463.614,157.108,445.097,123.338z"/></g></defs><g fi:class="KUsePattern"><pattern id="pattern_L1_0" width="350" height="350" patternUnits="userSpaceOnUse"><use xlink:href="#L1_0" x="-350" y="-350"/><use xlink:href="#L1_0" x="0" y="-350"/><use xlink:href="#L1_0" x="350" y="-350"/><use xlink:href="#L1_0" x="-350" y="0"/><use xlink:href="#L1_0" x="0" y="0"/><use xlink:href="#L1_0" x="350" y="0"/><use xlink:href="#L1_0" x="-350" y="350"/><use xlink:href="#L1_0" x="0" y="350"/><use xlink:href="#L1_0" x="350" y="350"/></pattern><rect x="0" y="0" width="100%" height="100%" fill="url(#pattern_L1_0)"/></g><g fi:class="KUsePattern"><pattern id="pattern_L1_3" width="350" height="350" patternUnits="userSpaceOnUse"><use xlink:href="#L1_3" x="-350" y="-350"/><use xlink:href="#L1_3" x="0" y="-350"/><use xlink:href="#L1_3" x="350" y="-350"/><use xlink:href="#L1_3" x="-350" y="0"/><use xlink:href="#L1_3" x="0" y="0"/><use xlink:href="#L1_3" x="350" y="0"/><use xlink:href="#L1_3" x="-350" y="350"/><use xlink:href="#L1_3" x="0" y="350"/><use xlink:href="#L1_3" x="350" y="350"/></pattern><rect x="0" y="0" width="100%" height="100%" fill="url(#pattern_L1_3)"/></g><g fi:class="KUsePattern"><pattern id="pattern_L1_4" width="350" height="350" patternUnits="userSpaceOnUse"><use xlink:href="#L1_4" x="-350" y="-350"/><use xlink:href="#L1_4" x="0" y="-350"/><use xlink:href="#L1_4" x="350" y="-350"/><use xlink:href="#L1_4" x="-350" y="0"/><use xlink:href="#L1_4" x="0" y="0"/><use xlink:href="#L1_4" x="350" y="0"/><use xlink:href="#L1_4" x="-350" y="350"/><use xlink:href="#L1_4" x="0" y="350"/><use xlink:href="#L1_4" x="350" y="350"/></pattern><rect x="0" y="0" width="100%" height="100%" fill="url(#pattern_L1_4)"/></g><g fi:class="KUsePattern"><pattern id="pattern_L1_5" width="350" height="350" patternUnits="userSpaceOnUse"><use xlink:href="#L1_5" x="-350" y="-350"/><use xlink:href="#L1_5" x="0" y="-350"/><use xlink:href="#L1_5" x="350" y="-350"/><use xlink:href="#L1_5" x="-350" y="0"/><use xlink:href="#L1_5" x="0" y="0"/><use xlink:href="#L1_5" x="350" y="0"/><use xlink:href="#L1_5" x="-350" y="350"/><use xlink:href="#L1_5" x="0" y="350"/><use xlink:href="#L1_5" x="350" y="350"/></pattern><rect x="0" y="0" width="100%" height="100%" fill="url(#pattern_L1_5)"/></g><g fi:class="KUsePattern"><pattern id="pattern_L1_6" width="350" height="350" patternUnits="userSpaceOnUse"><use xlink:href="#L1_6" x="-350" y="-350"/><use xlink:href="#L1_6" x="0" y="-350"/><use xlink:href="#L1_6" x="350" y="-350"/><use xlink:href="#L1_6" x="-350" y="0"/><use xlink:href="#L1_6" x="0" y="0"/><use xlink:href="#L1_6" x="350" y="0"/><use xlink:href="#L1_6" x="-350" y="350"/><use xlink:href="#L1_6" x="0" y="350"/><use xlink:href="#L1_6" x="350" y="350"/></pattern><rect x="0" y="0" width="100%" height="100%" fill="url(#pattern_L1_6)"/></g><g fi:class="KUsePattern"><pattern id="pattern_L1_7" width="350" height="350" patternUnits="userSpaceOnUse"><use xlink:href="#L1_7" x="-350" y="-350"/><use xlink:href="#L1_7" x="0" y="-350"/><use xlink:href="#L1_7" x="350" y="-350"/><use xlink:href="#L1_7" x="-350" y="0"/><use xlink:href="#L1_7" x="0" y="0"/><use xlink:href="#L1_7" x="350" y="0"/><use xlink:href="#L1_7" x="-350" y="350"/><use xlink:href="#L1_7" x="0" y="350"/><use xlink:href="#L1_7" x="350" y="350"/></pattern><rect x="0" y="0" width="100%" height="100%" fill="url(#pattern_L1_7)"/></g><g fi:class="KUsePattern"><pattern id="pattern_L1_8" width="350" height="350" patternUnits="userSpaceOnUse"><use xlink:href="#L1_8" x="-350" y="-350"/><use xlink:href="#L1_8" x="0" y="-350"/><use xlink:href="#L1_8" x="350" y="-350"/><use xlink:href="#L1_8" x="-350" y="0"/><use xlink:href="#L1_8" x="0" y="0"/><use xlink:href="#L1_8" x="350" y="0"/><use xlink:href="#L1_8" x="-350" y="350"/><use xlink:href="#L1_8" x="0" y="350"/><use xlink:href="#L1_8" x="350" y="350"/></pattern><rect x="0" y="0" width="100%" height="100%" fill="url(#pattern_L1_8)"/></g><g fi:class="KUsePattern"><pattern id="pattern_L1_9" width="350" height="350" patternUnits="userSpaceOnUse"><use xlink:href="#L1_9" x="-350" y="-350"/><use xlink:href="#L1_9" x="0" y="-350"/><use xlink:href="#L1_9" x="350" y="-350"/><use xlink:href="#L1_9" x="-350" y="0"/><use xlink:href="#L1_9" x="0" y="0"/><use xlink:href="#L1_9" x="350" y="0"/><use xlink:href="#L1_9" x="-350" y="350"/><use xlink:href="#L1_9" x="0" y="350"/><use xlink:href="#L1_9" x="350" y="350"/></pattern><rect x="0" y="0" width="100%" height="100%" fill="url(#pattern_L1_9)"/></g><g fi:class="KUsePattern"><pattern id="pattern_L1_10" width="350" height="350" patternUnits="userSpaceOnUse"><use xlink:href="#L1_10" x="-350" y="-350"/><use xlink:href="#L1_10" x="0" y="-350"/><use xlink:href="#L1_10" x="350" y="-350"/><use xlink:href="#L1_10" x="-350" y="0"/><use xlink:href="#L1_10" x="0" y="0"/><use xlink:href="#L1_10" x="350" y="0"/><use xlink:href="#L1_10" x="-350" y="350"/><use xlink:href="#L1_10" x="0" y="350"/><use xlink:href="#L1_10" x="350" y="350"/></pattern><rect x="0" y="0" width="100%" height="100%" fill="url(#pattern_L1_10)"/></g><g fi:class="KUsePattern"><pattern id="pattern_L1_11" width="350" height="350" patternUnits="userSpaceOnUse"><use xlink:href="#L1_11" x="-350" y="-350"/><use xlink:href="#L1_11" x="0" y="-350"/><use xlink:href="#L1_11" x="350" y="-350"/><use xlink:href="#L1_11" x="-350" y="0"/><use xlink:href="#L1_11" x="0" y="0"/><use xlink:href="#L1_11" x="350" y="0"/><use xlink:href="#L1_11" x="-350" y="350"/><use xlink:href="#L1_11" x="0" y="350"/><use xlink:href="#L1_11" x="350" y="350"/></pattern><rect x="0" y="0" width="100%" height="100%" fill="url(#pattern_L1_11)"/></g></svg>